<svg data-v-423bf9ae="" xmlns="http://www.w3.org/2000/svg" viewBox="0 0 474.13447157895064 60" class="font"><!----><!----><!----><g data-v-423bf9ae="" id="a369e10c-3cda-4c4e-8156-97cc38e2d992" fill="white" transform="matrix(6.109979823280842,0,0,6.109979823280842,-6.232173900819163,-26.33401221188742)"><path d="M6.93 4.31L6.93 8.51L2.55 8.51L2.55 4.31L1.02 4.31L1.02 14L2.55 14L2.55 9.87L6.93 9.87L6.93 14L8.46 14L8.46 4.31ZM17.30 10.57C17.29 8.48 15.76 6.99 13.64 6.99C11.51 6.99 9.95 8.48 9.95 10.56C9.95 12.63 11.51 14.13 13.64 14.13C15.33 14.13 16.80 13.03 17.19 11.51L15.74 11.51C15.47 12.33 14.63 12.95 13.65 12.95C12.46 12.95 11.55 12.15 11.37 11.00L17.26 11.00C17.29 10.86 17.30 10.71 17.30 10.57ZM13.65 8.16C14.78 8.16 15.69 8.88 15.93 9.90L11.41 9.90C11.66 8.86 12.53 8.16 13.65 8.16ZM20.08 8.72L20.08 7.11L18.65 7.11L18.65 14L20.08 14L20.08 10.60C20.08 9.18 21.07 8.34 22.67 8.34L22.67 6.93C21.45 6.93 20.54 7.59 20.08 8.72ZM27.26 6.99C26.31 6.99 25.54 7.41 25.09 8.15L25.09 4.31L23.66 4.31L23.66 14L25.09 14L25.09 9.97C25.09 8.86 25.77 8.13 26.84 8.13C27.87 8.13 28.55 8.86 28.55 9.97L28.55 14L29.99 14L29.99 9.77C29.99 8.11 28.84 6.99 27.26 6.99ZM38.61 10.57C38.60 8.48 37.07 6.99 34.94 6.99C32.82 6.99 31.26 8.48 31.26 10.56C31.26 12.63 32.82 14.13 34.94 14.13C36.64 14.13 38.11 13.03 38.50 11.51L37.04 11.51C36.78 12.33 35.94 12.95 34.96 12.95C33.77 12.95 32.86 12.15 32.68 11.00L38.57 11.00C38.60 10.86 38.61 10.71 38.61 10.57ZM34.96 8.16C36.09 8.16 37.00 8.88 37.24 9.90L32.72 9.90C32.97 8.86 33.84 8.16 34.96 8.16ZM45.43 7.11L45.43 8.11C44.83 7.41 43.95 6.99 42.92 6.99C40.98 6.99 39.55 8.48 39.55 10.56C39.55 12.63 40.98 14.13 42.92 14.13C43.95 14.13 44.83 13.71 45.43 13.01L45.43 14L46.86 14L46.86 7.11ZM43.22 12.88C41.94 12.88 41.02 11.91 41.02 10.56C41.02 9.21 41.94 8.23 43.22 8.23C44.51 8.23 45.43 9.21 45.43 10.56C45.43 11.91 44.51 12.88 43.22 12.88ZM48.62 4.31L48.62 14L50.05 14L50.05 4.31ZM55.47 7.11L53.91 7.11L53.91 5.33L52.47 5.33L52.47 7.11L51.20 7.11L51.20 8.32L52.47 8.32L52.47 14L53.91 14L53.91 8.32L55.47 8.32ZM60.17 6.99C59.22 6.99 58.45 7.41 58.00 8.15L58.00 4.31L56.57 4.31L56.57 14L58.00 14L58.00 9.97C58.00 8.86 58.69 8.13 59.75 8.13C60.79 8.13 61.46 8.86 61.46 9.97L61.46 14L62.90 14L62.90 9.77C62.90 8.11 61.75 6.99 60.17 6.99ZM70.63 7.11L68.94 7.11L66.01 10.19L66.01 4.31L64.58 4.31L64.58 14L66.01 14L66.01 10.65L68.94 14L70.63 14L67.45 10.40ZM73.42 5.25C73.42 4.75 73.04 4.41 72.51 4.41C71.96 4.41 71.60 4.75 71.60 5.25C71.60 5.74 71.96 6.09 72.51 6.09C73.04 6.09 73.42 5.74 73.42 5.25ZM71.79 7.11L71.79 14L73.22 14L73.22 7.11ZM78.62 7.11L77.07 7.11L77.07 5.33L75.63 5.33L75.63 7.11L74.35 7.11L74.35 8.32L75.63 8.32L75.63 14L77.07 14L77.07 8.32L78.62 8.32Z"></path></g><!----><!----></svg>